<?xml version="1.0" standalone="no"?>
<!DOCTYPE svg PUBLIC "-//W3C//DTD SVG 20010904//EN"
 "http://www.w3.org/TR/2001/REC-SVG-20010904/DTD/svg10.dtd">
<svg version="1.0" xmlns="http://www.w3.org/2000/svg"
 width="242.000000pt" height="242.000000pt" viewBox="0 0 242.000000 242.000000"
 preserveAspectRatio="xMidYMid meet">

<g transform="translate(0.000000,242.000000) scale(0.100000,-0.100000)"
fill="#9b59b6" stroke="none">
<path fill="#7f8c8d" d="M1145 2320 c-81 -13 -226 -55 -278 -81 -206 -104 -341 -295 -377
-534 -27 -178 22 -362 138 -524 l47 -66 7 122 c12 217 70 366 188 483 70 70
150 118 245 146 82 25 293 25 385 1 134 -37 250 -92 337 -163 l42 -34 121 176
122 175 -23 25 c-51 54 -264 176 -379 216 -137 48 -203 59 -360 63 -85 2 -182
0 -215 -5z"/>
<path d="M194 1115 c16 -419 209 -758 521 -917 271 -138 683 -168 1012 -72
116 33 260 109 361 189 126 100 122 83 122 480 0 182 -3 347 -6 368 l-7 37
-238 0 -239 0 0 -286 c0 -187 -4 -292 -11 -306 -26 -48 -228 -112 -396 -126
-333 -28 -642 82 -851 303 -87 91 -149 183 -206 308 -72 158 -67 156 -62 22z"/>
</g>
</svg>
